<?xml version="1.0" encoding="UTF-8"?>
<svg width="16px" height="16px" viewBox="0 0 16 16" version="1.1" xmlns="http://www.w3.org/2000/svg" xmlns:xlink="http://www.w3.org/1999/xlink">
    <!-- Generator: sketchtool 59.1 (101010) - https://sketch.com -->
    <title>6B13FE82-46AD-4CA7-A9B1-903BA498B6E2</title>
    <desc>Created with sketchtool.</desc>
    <g id="Page-1" stroke="none" stroke-width="1" fill="none" fill-rule="evenodd">
        <g id="Front-End-Test---Home-view" transform="translate(-176.000000, -493.000000)" fill="#606060" fill-rule="nonzero">
            <g id="News" transform="translate(150.000000, 468.000000)">
                <g id="Group-7" transform="translate(26.000000, 25.000000)">
                    <g id="iconmonstr-time-2">
                        <path d="M8,1.33333333 C11.676,1.33333333 14.6666667,4.324 14.6666667,8 C14.6666667,11.676 11.676,14.6666667 8,14.6666667 C4.324,14.6666667 1.33333333,11.676 1.33333333,8 C1.33333333,4.324 4.324,1.33333333 8,1.33333333 Z M8,0 C3.582,0 0,3.582 0,8 C0,12.418 3.582,16 8,16 C12.418,16 16,12.418 16,8 C16,3.582 12.418,0 8,0 Z M8.66666667,8 L8.66666667,4 L7.33333333,4 L7.33333333,9.33333333 L12,9.33333333 L12,8 L8.66666667,8 Z" id="Shape"></path>
                    </g>
                </g>
            </g>
        </g>
    </g>
</svg>