<?xml version="1.0" encoding="UTF-8"?>
<svg width="24px" height="22px" viewBox="0 0 24 22" version="1.1" xmlns="http://www.w3.org/2000/svg" xmlns:xlink="http://www.w3.org/1999/xlink">
    <!-- Generator: sketchtool 59.1 (101010) - https://sketch.com -->
    <title>06B52DB2-5D7F-44F9-B215-93928DAC8388</title>
    <desc>Created with sketchtool.</desc>
    <g id="Page-1" stroke="none" stroke-width="1" fill="none" fill-rule="evenodd">
        <g id="Front-End-Test---Home-view" transform="translate(-1244.000000, -383.000000)" fill="#DD0031" fill-rule="nonzero">
            <g id="News" transform="translate(740.000000, 348.000000)">
                <g id="iconmonstr-favorite-2" transform="translate(504.000000, 35.000000)">
                    <path d="M12,8.229 C12.234,7.109 13.547,2 17.382,2 C19.602,2 22,3.551 22,7.003 C22,10.91 18.373,15.473 12,19.632 C5.627,15.473 2,10.91 2,7.003 C2,3.519 4.369,1.998 6.577,1.998 C10.5,1.998 11.722,7.124 12,8.229 Z M0,7.003 C0,11.071 3.06,16.484 12,22 C20.94,16.484 24,11.071 24,7.003 C24,-0.959 14.352,-2.025 12,3.266 C9.662,-1.996 0,-1.004 0,7.003 Z" id="Shape"></path>
                </g>
            </g>
        </g>
    </g>
</svg>